<svg xmlns="http://www.w3.org/2000/svg" viewBox="0 0 128 128" role="img" aria-label="Gemini logo"><rect width="128" height="128" rx="28" fill="#ffffff"/><path d="M64 16c5.7 18.2 10.3 22.8 28.5 28.5C74.3 50.2 69.7 54.8 64 73 58.3 54.8 53.7 50.2 35.5 44.5 53.7 38.8 58.3 34.2 64 16Z" fill="#5b6cff"/><path d="M92 55c4.1 13.1 7.4 16.4 20.5 20.5C99.4 79.6 96.1 82.9 92 96c-4.1-13.1-7.4-16.4-20.5-20.5C84.6 71.4 87.9 68.1 92 55Z" fill="#8a3ffc"/><path d="M40 67c3.3 10.6 6 13.3 16.6 16.6C46 86.9 43.3 89.6 40 100.2 36.7 89.6 34 86.9 23.4 83.6 34 80.3 36.7 77.6 40 67Z" fill="#00b7ff"/></svg>