<svg xmlns="http://www.w3.org/2000/svg" viewBox="0 0 128 128" role="img" aria-label="Spotify logo"><rect width="128" height="128" rx="28" fill="#1ed760"/><circle cx="64" cy="64" r="34" fill="#191414"/><path d="M79.9 79.1a3.2 3.2 0 0 1-4.4 1.1c-12.1-7.4-27.3-9-45.1-4.8a3.2 3.2 0 1 1-1.5-6.3c19.5-4.5 36.5-2.6 50 5.7a3.2 3.2 0 0 1 1 4.3Zm6.2-13.7a4 4 0 0 1-5.5 1.3c-13.8-8.5-34.8-11-51.2-6.1a4 4 0 1 1-2.3-7.7c18.8-5.6 42-2.9 57.8 6.8a4 4 0 0 1 1.2 5.7Zm.5-14.2c-16.5-9.8-43.8-10.7-59.6-5.9a4.8 4.8 0 0 1-2.8-9.2c18.1-5.5 48.2-4.4 67.3 6.9a4.8 4.8 0 1 1-4.9 8.2Z" fill="#1ed760"/></svg>